<?xml version="1.0" standalone="no"?><!DOCTYPE svg PUBLIC "-//W3C//DTD SVG 1.1//EN" "http://www.w3.org/Graphics/SVG/1.1/DTD/svg11.dtd"><svg class="icon" width="200px" height="200.00px" viewBox="0 0 1024 1024" version="1.1" xmlns="http://www.w3.org/2000/svg"><path d="M915.062697 361.912746c31.753756-81.12141-8.099957-204.41461-80.608444-248.832803-32.46126-19.92788-97.209721-39.471803-177.544787 40.014462v0.095222c-0.517062-0.319452-0.902043-0.769962-1.481562-1.092486-25.068808-14.461356-53.801078-15.491385-76.830307-2.826947 0 0-209.239157 110.822276-217.85208 115.321228-19.411842 10.156942-46.136273 31.753756-53.851249 47.182683-2.379509 4.755947-199.786648 346.157198-199.786648 346.157199-25.197818 43.64516-10.222471 99.635305 33.231222 124.769641l226.126098 130.49009c21.037772 12.213928 45.593614 15.428928 69.118403 9.129985 23.591342-6.365495 43.312397-21.471899 55.526325-42.683731 0 0 195.428992-337.349737 199.80303-346.029213 9.880493-19.734366 15.040875-51.135905 14.701969-69.359016-0.111604-8.484938-3.51807-101.757819-6.042971-171.182363 29.314861 17.614923 83.501944 71.353544 57.467612 221.966051-18.302974 105.999776-7.954565 178.443758 30.680723 215.4695 34.518246 32.978322 77.570576 24.042875 79.387973 23.65687 18.753484-6.812933 30.66127-17.742909 36.575231-32.333274 13.162046-32.336346-6.236486-73.41053-14.527908-91.025454-46.347193-98.091286-23.334347-152.089974 8.468555-226.846913l17.438815-42.040731zM653.80607 490.412402l-0.306142 2.251524-5.335466 16.26237-199.786648 346.027165c-5.65799 9.771962-14.734734 16.775337-25.582799 19.668837-10.736462 2.8935-21.984866 1.41501-31.628842-4.176428l-226.14248-130.494185c-19.941191-11.56888-26.740813-37.282736-15.168861-57.336554l199.786648-346.029213c-0.062457 0.032764 11.443966-12.726895 11.443966-12.726894 1.672005-1.352553 22.672917-15.557938 22.672917-15.557938l218.253444-115.577199c9.577423-5.206457 21.083847-2.313981 28.781416 2.119443 10.107796 5.785976 16.472267 14.915961 16.663734 23.851408l1.030028 28.090294c-10.686291 0.127986-21.228214 1.092486-31.177308 3.791447-3.791447-3.856976-8.05081-7.520438-12.983889-10.350456-29.505303-17.032332-67.367559-6.940919-84.402963 22.564384-17.032332 29.505303-6.87539 67.367559 22.548002 84.399892 29.56776 17.035404 67.430016 6.94399 84.416274-22.561313h0.049146c7.987329-13.81938 9.788344-29.439775 6.621467-43.905227 5.15731-0.898971 10.558305-1.349481 16.087286-1.41501l6.618394 185.838259c0.001024-0.768938-2.457325 25.265394-2.457324 25.265394zM574.224583 297.24722c6.316349 6.555938 16.715952 6.747404 23.271889 0.447438 1.42832-1.349481 3.165853-2.504424 4.77233-3.725918-0.065529 4.818404-1.221495 9.705409-3.856976 14.205384-7.987329 13.756923-25.648327 18.512871-39.468732 10.541924-13.756923-7.970947-18.512871-25.648327-10.541923-39.467708 7.135457-12.341914 21.919337-16.840866 34.903227-12.084918-2.955957 2.184971-5.976419 4.241957-8.612923 6.812933-6.555938 6.268226-6.749452 16.714928-0.466892 23.270865z m310.177868 52.646136L867.367047 391.034092c-19.414914 45.639688-37.282736 87.615915-37.282736 137.753532 0 33.748284 8.083575 71.225559 29.295406 116.094261 4.772329 10.09039 15.893772 33.682756 15.893772 52.389141 0 4.370966-0.579519 8.547395-2.073367 12.148399-1.526613 3.791447-4.821476 9.320428-15.281489 13.178428-0.081911-0.194538-26.694738 4.308509-47.762203-16.19889-20.632313-20.05689-40.883741-68.523525-20.632313-185.772729 30.967412-179.667301-44.868703-241.120898-78.93951-259.248788-3.985986-2.119443-8.162414-3.406466-12.341914-5.078471-0.83549-23.334347-1.41501-39.083751-1.41501-39.083751-0.384981-14.91289-6.316349-29.311789-15.620394-41.781689 36.707313-35.933255 86.266434-64.860064 136.005759-34.327803 45.011023 27.642856 75.865807 97.709377 75.849425 158.455469-0.001024 18.062361-2.762443 35.288208-8.660022 50.332155z" fill="#27323A" /><path d="M633.558737 280.724783c3.165853 14.464428 1.365863 30.084822-6.621466 43.905226h-0.049146c-16.986258 29.505303-54.848513 39.596717-84.416274 22.561314-29.423393-17.032332-39.580335-54.894588-22.548002-84.399892 17.035404-29.505303 54.897659-39.596717 84.402962-22.564384 4.933079 2.830019 9.192442 6.493481 12.98389 10.350456 9.949094-2.698962 20.491017-3.663462 31.177308-3.791447l-1.030028-28.090294c-0.190443-8.935447-6.555938-18.065433-16.663734-23.851409-7.698594-4.433423-19.203993-7.325899-28.781416-2.119442L383.758363 308.30211s-21.000912 14.204361-22.672917 15.557938c0 0-11.506423 12.759659-11.443966 12.726894L149.854832 682.616155c-11.571952 20.053818-4.772329 45.767674 15.168861 57.336554l226.14248 130.493161c9.642952 5.591438 20.89238 7.069928 31.628842 4.176428 10.848065-2.8935 19.924808-9.896876 25.582799-19.668837L648.165485 508.925272l5.335467-16.26237 0.306142-2.251524s2.458349-26.033308 2.458348-25.263347l-6.618394-185.838258c-5.530005 0.066553-10.931 0.517062-16.088311 1.41501zM589.894124 511.077479L422.232902 801.504599c-4.548099 7.872654-14.593438 10.541923-22.466092 6.010207L215.227862 700.996944a16.30435 16.30435 0 0 1-7.664805-9.995168 16.430288 16.430288 0 0 1 1.63924-12.470923l167.647912-290.357496c4.548099-7.90849 14.606748-10.574688 22.482474-6.042972L583.883917 488.611388a16.593086 16.593086 0 0 1 7.664806 9.995168c1.126274 4.213288 0.530373 8.71224-1.654599 12.470923z" fill="#79CCBF" /><path d="M525.03406 492.662902L373.828723 754.545123l28.140464 16.232678 151.204314-261.885293z" fill="#FFFFFF" /><path d="M397.130305 418.867391L245.938279 680.749612l127.890444 73.795511 151.205337-261.882221z" fill="#F4CE73" /><path d="M583.883917 488.611388L399.332683 382.130385c-7.875726-4.531716-17.933351-1.866543-22.482474 6.042972L209.202297 678.531876a16.433359 16.433359 0 0 0-1.63924 12.470924 16.30435 16.30435 0 0 0 7.664805 9.995168l184.538948 106.516838c7.872654 4.531716 17.916969 1.862447 22.466092-6.010207L589.894124 511.077479a16.41493 16.41493 0 0 0 1.655622-12.470923 16.601277 16.601277 0 0 0-7.665829-9.995168zM373.828723 754.545123l-127.890444-73.795511 151.192026-261.882221 127.903755 73.795511 28.139441 16.228582-151.204314 261.886317-28.140464-16.232678z" fill="#27323A" /><path d="M583.305422 267.162398c-12.98389-4.755947-27.76777-0.256995-34.903227 12.084918-7.970947 13.81938-3.216024 31.49676 10.541923 39.467708 13.81938 7.970947 31.480378 3.216024 39.468732-10.541923 2.636505-4.498952 3.791447-9.386981 3.856976-14.205385-1.606476 1.221495-3.344009 2.376438-4.77233 3.725918-6.555938 6.298943-16.956565 6.1085-23.271889-0.447438-6.28256-6.555938-6.089046-17.00264 0.466891-23.271889 2.635481-2.569952 5.656966-4.626938 8.612924-6.811909z" fill="#FFFFFF" /></svg>